<svg width="12" height="15" fill="none" xmlns="http://www.w3.org/2000/svg"><path fill-rule="evenodd" clip-rule="evenodd" d="M10.356 5.412c0-2.253-1.836-4.104-4.068-4.104a4.102 4.102 0 00-4.13 4.1A4.108 4.108 0 006.257 9.52c2.259.002 4.1-1.843 4.1-4.108zm-3.515 8.116c0 .287.002.561 0 .835-.004.292-.178.521-.439.585-.38.093-.72-.175-.727-.576-.005-.237-.001-.474-.001-.71v-.134h-.755c-.353 0-.61-.235-.618-.565-.01-.336.241-.592.598-.601.217-.006.434-.002.652-.002h.123v-.227c0-.447-.004-.893.002-1.34.002-.112-.03-.141-.142-.16-1.743-.273-3.064-1.177-3.91-2.725-1.089-1.993-.765-4.423.78-6.083A5.158 5.158 0 015.597.18c2.704-.353 5.246 1.462 5.811 4.143a5.266 5.266 0 01-2.444 5.61 5.23 5.23 0 01-2.033.708c-.056.008-.092.019-.092.087.002.538.001 1.076.001 1.632h.127c.232.001.465-.006.697.006a.572.572 0 01.548.543.577.577 0 01-.462.607c-.07.015-.144.011-.216.012H6.84z" fill="#B1BFCD"/></svg>