<svg width="14" height="14" fill="none" xmlns="http://www.w3.org/2000/svg"><g clip-path="url(#clip0)"><mask id="a" maskUnits="userSpaceOnUse" x="0" y="0" width="14" height="14"><path fill-rule="evenodd" clip-rule="evenodd" d="M.84.969h12.668v12.677H.841" fill="#fff"/></mask><g mask="url(#a)"><path fill-rule="evenodd" clip-rule="evenodd" d="M6.313 12.428c2.342 0 4.247-1.897 4.267-4.212.02-2.338-1.858-4.314-4.26-4.318a4.263 4.263 0 00-4.264 4.264 4.252 4.252 0 004.257 4.266zM9.72 3.872l1.686-1.688c-.146 0-.29.002-.434 0-.127-.003-.255 0-.38-.017-.314-.044-.524-.329-.498-.66a.595.595 0 01.583-.536c.749-.003 1.498-.003 2.246 0 .297 0 .55.231.574.529.015.19.01.38.01.57 0 .583.005 1.167-.01 1.75a.586.586 0 01-.611.567.603.603 0 01-.59-.607c-.003-.226-.002-.452-.003-.678 0-.008-.005-.015 0 .002l-1.67 1.672c.975 1.268 1.357 2.732 1.08 4.349-.233 1.37-.92 2.486-2.004 3.348-2.145 1.707-5.283 1.531-7.215-.395C.491 10.09.285 6.97 2.005 4.788a5.44 5.44 0 012.281-1.715 5.401 5.401 0 012.833-.33A5.38 5.38 0 019.72 3.872z" fill="#B1BFCD"/></g></g><defs><clipPath id="clip0"><path fill="#fff" transform="translate(.84 .934)" d="M0 0h12.696v12.712H0z"/></clipPath></defs></svg>